<svg width="218" height="49" viewBox="0 0 218 49" fill="none" xmlns="http://www.w3.org/2000/svg">
<g clip-path="url(#clip0_44_92)">
<path d="M0 49.993H49.98V0H0V49.993ZM32.035 3.818C40.869 6.714 47.253 15.091 47.277 24.987C47.301 34.722 41.046 43.079 32.035 46.167V3.818ZM24.982 2.685C26.578 2.685 28.278 2.898 29.694 3.18C29.694 14.506 18.742 23.827 7.439 23.827L2.713 23.82C3.488 12.21 13.093 2.685 24.982 2.685ZM7.443 26.185C18.744 26.185 29.692 35.496 29.692 46.811C28.278 47.1 26.493 47.315 24.982 47.315C13.089 47.299 3.159 37.745 2.71 26.185H7.443ZM66.711 29.389V26.238H77.111V22.221H66.709V16.372H77.774V12.364H62.452V29.207C62.452 33.465 64.265 36.377 68.521 36.975C68.606 36.996 68.69 37.012 68.768 37.014H68.845C69.281 37.063 69.726 37.095 70.193 37.095H78.069V33.092H70.228C68.875 33.092 66.711 32.424 66.711 29.389ZM81.094 37.101H85.353V12.358H81.094V37.101ZM97.856 18.644C92.473 18.644 88.444 22.353 88.444 28.128V28.271C88.444 33.905 92.33 37.542 97.963 37.542C100.672 37.542 103.203 36.794 105.52 34.332L102.953 31.837C101.598 33.192 100.279 33.905 98.105 33.905C94.932 33.905 92.829 32.051 92.686 29.198H106.66C106.731 28.485 106.731 27.701 106.731 27.701C106.733 22.673 103.203 18.644 97.856 18.644ZM92.794 26.203C92.972 24.027 95.183 22.28 97.856 22.28C100.351 22.28 102.383 24.063 102.383 26.203H92.794ZM118.7 22.459C120.625 22.459 122.052 23.173 123.263 24.42L125.901 21.674C123.833 19.463 121.374 18.572 118.7 18.572C113.281 18.572 108.932 22.601 108.932 28.092C108.932 33.583 113.281 37.613 118.7 37.613C121.374 37.613 123.834 36.722 125.901 34.511L123.263 31.765C122.052 33.013 120.625 33.726 118.7 33.726C115.562 33.726 113.174 31.336 113.174 28.092C113.174 24.848 115.562 22.459 118.7 22.459ZM132.811 29.396H132.806V23.079H136.679V19.209H132.811V12.359H128.552V29.647L128.564 29.646C128.686 33.666 130.512 36.404 134.621 36.981C134.706 37.002 134.79 37.018 134.868 37.019H134.945C135.381 37.068 135.826 37.101 136.293 37.101H136.744L136.759 33.098H136.328C134.975 33.098 132.811 32.431 132.811 29.396ZM144.487 21.87V19.21H140.263V37.101H144.487V27.693C144.487 24.747 146.368 22.9 149.313 22.9C149.987 22.9 150.591 22.97 151.088 23.078V18.961C150.665 18.8954 150.239 18.8597 149.811 18.854C147.255 18.855 145.339 20.027 144.487 21.87ZM161.502 18.677C156.071 18.677 151.74 22.793 151.74 28.155C151.74 33.514 156.071 37.633 161.502 37.633C166.895 37.633 171.262 33.514 171.262 28.155C171.261 22.794 166.895 18.677 161.502 18.677ZM161.502 33.764C158.343 33.764 155.966 31.313 155.966 28.155C155.966 24.995 158.343 22.546 161.502 22.546C164.626 22.546 167.038 24.995 167.038 28.155C167.037 31.314 164.626 33.764 161.502 33.764ZM173.88 37.101H178.141V12.358H173.88V37.101ZM193.502 29.61C193.502 32.449 191.834 33.658 189.597 33.658C187.361 33.658 185.694 32.449 185.694 29.648V19.21H181.399V30.002C181.399 35.114 185.125 37.563 189.562 37.563C194.034 37.563 197.795 35.078 197.795 29.895V19.21H193.502V29.61ZM213.91 31.38L211.224 27.623L214.55 23.091L217.398 19.21H212.749L208.879 24.57L204.975 19.21H200.362L203.007 22.829L206.537 27.658L202.837 32.811L199.758 37.101H204.336L208.878 30.782L213.422 37.101H218.001L213.91 31.38Z" fill="#041E41"/>
</g>
<defs>
<clipPath id="clip0_44_92">
<rect width="218" height="49" fill="white"/>
</clipPath>
</defs>
</svg>
